<?xml version="1.0" encoding="UTF-8"?>
<svg version="1.1" xmlns="http://www.w3.org/2000/svg" width="100" height="100">
<path d="M0 0 C0.66 0.33 1.32 0.66 2 1 C1.690625 1.99 1.38125 2.98 1.0625 4 C0.63949682 6.77490086 0.83654826 7.74768577 2.38671875 10.140625 C4.70088455 12.76043534 7.12017352 15.20070683 9.70703125 17.55078125 C11 19 11 19 11.4375 21.9375 C10.89423745 25.74033786 9.7038222 26.37342987 7 29 C5.78979068 31.62296414 4.91594753 34.25215741 4 37 C4.969375 36.21625 5.93875 35.4325 6.9375 34.625 C7.48277344 34.18414062 8.02804688 33.74328125 8.58984375 33.2890625 C11.80974597 30.34566158 11.33337975 26.44657946 11.5625 22.375 C11.60568359 21.66859375 11.64886719 20.9621875 11.69335938 20.234375 C11.79944751 18.48981463 11.90022889 16.74493303 12 15 C16.29 15 20.58 15 25 15 C28 23.5 28 23.5 28 28 C23.05 28 18.1 28 13 28 C13 30.97 13 33.94 13 37 C8.06632653 39.00691802 5.44479395 40 0 40 C0 36.7 0 33.4 0 30 C-3.3 29.67 -6.6 29.34 -10 29 C-10.67528223 27.42032193 -11.33989694 25.83608097 -12 24.25 C-12.556875 22.92742188 -12.556875 22.92742188 -13.125 21.578125 C-14 19 -14 19 -14 15 C-8.06 14.505 -8.06 14.505 -2 14 C-2.66 12.68 -3.32 11.36 -4 10 C-3.67567568 3.83783784 -3.67567568 3.83783784 -1.4375 1.0625 C-0.7259375 0.5365625 -0.7259375 0.5365625 0 0 Z " fill="#108EAF" transform="translate(22,28)"/>
<path d="M0 0 C0.66 0 1.32 0 2 0 C2.33 0.99 2.66 1.98 3 3 C2.34 3.66 1.68 4.32 1 5 C1.33 5.66 1.66 6.32 2 7 C2.13415472 9.6723621 2.04318541 12.32250488 2 15 C-1.3 15.33 -4.6 15.66 -8 16 C-8.67528223 14.42032193 -9.33989694 12.83608097 -10 11.25 C-10.37125 10.36828125 -10.7425 9.4865625 -11.125 8.578125 C-12 6 -12 6 -12 2 C-6.06 1.505 -6.06 1.505 0 1 C0 0.67 0 0.34 0 0 Z " fill="#14A8B3" transform="translate(20,41)"/>
<path d="M0 0 C4.29 0 8.58 0 13 0 C16 8.5 16 8.5 16 13 C13.36 13 10.72 13 8 13 C7.608125 11.783125 7.21625 10.56625 6.8125 9.3125 C5.26908861 5.1349009 3.34360638 2.89176768 0 0 Z " fill="#16A4B3" transform="translate(34,43)"/>
<path d="M0 0 C0.88042969 0.08378906 1.76085938 0.16757812 2.66796875 0.25390625 C4.41013672 0.40666016 4.41013672 0.40666016 6.1875 0.5625 C7.33605469 0.66691406 8.48460937 0.77132812 9.66796875 0.87890625 C12.70344215 0.9892224 15.06144118 0.65301307 18 0 C20.8125 0.4375 20.8125 0.4375 23 1 C23 2.32 23 3.64 23 5 C15.41 5 7.82 5 0 5 C0 3.35 0 1.7 0 0 Z " fill="#0480B1" transform="translate(51,51)"/>
<path d="M0 0 C5.2972973 2.64864865 5.2972973 2.64864865 7 5 C7.6875 8.6875 7.6875 8.6875 8 12 C5.36 12 2.72 12 0 12 C0 8.04 0 4.08 0 0 Z " fill="#0874B0" transform="translate(34,44)"/>
<path d="M0 0 C0.33 0 0.66 0 1 0 C1 2.97 1 5.94 1 9 C-3.93367347 11.00691802 -6.55520605 12 -12 12 C-12 8.7 -12 5.4 -12 2 C-11.67 2 -11.34 2 -11 2 C-11 3.65 -11 5.3 -11 7 C-10.01 7 -9.02 7 -8 7 C-8 7.66 -8 8.32 -8 9 C-3.04437087 5.26978687 -3.04437087 5.26978687 0 0 Z " fill="#27A7B3" transform="translate(34,56)"/>
<path d="M0 0 C4.62 0 9.24 0 14 0 C14 1.65 14 3.3 14 5 C9.38 5 4.76 5 0 5 C0 3.35 0 1.7 0 0 Z " fill="#0DA1AF" transform="translate(51,42)"/>
<path d="M0 0 C6.93 0.495 6.93 0.495 14 1 C14.33 2.32 14.66 3.64 15 5 C9.72 5 4.44 5 -1 5 C-0.67 3.35 -0.34 1.7 0 0 Z M1 2 C1.33 2.66 1.66 3.32 2 4 C2.66 4 3.32 4 4 4 C4 3.34 4 2.68 4 2 C3.01 2 2.02 2 1 2 Z " fill="#0480B1" transform="translate(77,51)"/>
<path d="M0 0 C2.5 0.125 2.5 0.125 3.5 1.125 C3.625 4.125 3.625 4.125 3.5 7.125 C2.5 8.125 2.5 8.125 0 8.25 C-2.5 8.125 -2.5 8.125 -3.5 7.125 C-3.625 4.125 -3.625 4.125 -3.5 1.125 C-2.5 0.125 -2.5 0.125 0 0 Z " fill="#0382B1" transform="translate(32.5,33.875)"/>
<path d="M0 0 C0.66 0 1.32 0 2 0 C2.33 0.99 2.66 1.98 3 3 C-0.63 3.33 -4.26 3.66 -8 4 C-8.66 5.65 -9.32 7.3 -10 9 C-12 6 -12 6 -12 2 C-6.06 1.505 -6.06 1.505 0 1 C0 0.67 0 0.34 0 0 Z " fill="#41C3C6" transform="translate(20,41)"/>
<path d="M0 0 C0.66 0.33 1.32 0.66 2 1 C1.67 2.65 1.34 4.3 1 6 C-0.32 6 -1.64 6 -3 6 C-3 4.35 -3 2.7 -3 1 C-2.01 0.67 -1.02 0.34 0 0 Z " fill="#0A97B0" transform="translate(26,57)"/>
<path d="M0 0 C0.99 0.33 1.98 0.66 3 1 C3.33 3.31 3.66 5.62 4 8 C2.68 7.67 1.36 7.34 0 7 C0 4.69 0 2.38 0 0 Z " fill="#0486B1" transform="translate(38,48)"/>
<path d="M0 0 C0.99 0.33 1.98 0.66 3 1 C3 2.98 3 4.96 3 7 C2.01 7.33 1.02 7.66 0 8 C0 5.36 0 2.72 0 0 Z " fill="#03A1AD" transform="translate(33,34)"/>
<path d="M0 0 C0.33 0 0.66 0 1 0 C1 1.65 1 3.3 1 5 C1.99 5 2.98 5 4 5 C3.34 6.65 2.68 8.3 2 10 C1.34 10 0.68 10 0 10 C0 6.7 0 3.4 0 0 Z " fill="#37CDC1" transform="translate(22,58)"/>
<path d="M0 0 C2.64 0 5.28 0 8 0 C7.34 1.32 6.68 2.64 6 4 C3.53199953 2.84826645 1.95216435 1.95216435 0 0 Z " fill="#1388B7" transform="translate(34,43)"/>
</svg>
