<?xml version="1.0" encoding="UTF-8"?>
<svg version="1.1" xmlns="http://www.w3.org/2000/svg" width="500" height="120">
<path d="M0 0 C0.99 0.33 1.98 0.66 3 1 C2.319375 1.94875 1.63875 2.8975 0.9375 3.875 C-1.79506725 8.67152762 -1.11079851 12.76101002 0 18 C0.13148438 18.6703125 0.26296875 19.340625 0.3984375 20.03125 C3.19134016 29.90760144 12.86017397 37.29726219 20.7734375 43.1484375 C24.38897762 46.15504455 26.66219502 48.54388276 27.7421875 53.19921875 C27.9517489 58.70328732 28.03902667 62.49939134 24.828125 67.13671875 C22.33019879 69.66713244 19.89693033 71.9389053 17 74 C16.34 74 15.68 74 15 74 C14.86271484 75.94712891 14.86271484 75.94712891 14.72265625 77.93359375 C14.1513367 83.07546971 12.51886762 87.35984564 10.4375 92.0625 C10.10814453 92.83271484 9.77878906 93.60292969 9.43945312 94.39648438 C8.63697508 96.26893315 7.82001391 98.13516418 7 100 C7.60328125 99.59007813 8.2065625 99.18015625 8.828125 98.7578125 C9.62734375 98.21898438 10.4265625 97.68015625 11.25 97.125 C12.03890625 96.59132813 12.8278125 96.05765625 13.640625 95.5078125 C15.71555692 94.18177985 17.77614972 93.05071825 20 92 C20 91.34 20 90.68 20 90 C20.66 90 21.32 90 22 90 C22.26941406 89.41605469 22.53882813 88.83210938 22.81640625 88.23046875 C23.99845478 86.00291195 25.36918838 84.2798731 26.9375 82.3125 C35.16045338 70.05868712 33.2888238 53.73294281 31 40 C41.56 40 52.12 40 63 40 C65.65077291 46.62693226 68.26630143 53.24856929 70.75 59.9375 C71.06582031 60.77345703 71.38164062 61.60941406 71.70703125 62.47070312 C72.15369141 63.67436523 72.15369141 63.67436523 72.609375 64.90234375 C72.87717773 65.61898193 73.14498047 66.33562012 73.42089844 67.07397461 C74 69 74 69 74 72 C60.47 72 46.94 72 33 72 C33 79.59 33 87.18 33 95 C29.08760847 96.43011701 25.17420018 97.85619792 21.25683594 99.27246094 C19.92527291 99.75519303 18.59453177 100.24019864 17.26464844 100.72753906 C15.35043671 101.4285583 13.43339607 102.12128701 11.515625 102.8125 C10.36352539 103.23144531 9.21142578 103.65039062 8.02441406 104.08203125 C5 105 5 105 1 105 C1.33 95.1 1.66 85.2 2 75 C-7.24 75 -16.48 75 -26 75 C-28.165625 69.245625 -28.165625 69.245625 -30.375 63.375 C-30.82665527 62.17665527 -31.27831055 60.97831055 -31.74365234 59.74365234 C-32.10410645 58.78410645 -32.46456055 57.82456055 -32.8359375 56.8359375 C-33.20251465 55.86188965 -33.5690918 54.8878418 -33.94677734 53.88427734 C-37 45.52294854 -37 45.52294854 -37 41 C-24.79 40.67 -12.58 40.34 0 40 C-1.98 37.36 -3.96 34.72 -6 32 C-9.5090506 25.91764562 -9.98663055 19.86987198 -9 13 C-7.73711897 9.95304894 -6.07657649 7.54718872 -4 5 C-3.236875 4.01 -2.47375 3.02 -1.6875 2 C-1.130625 1.34 -0.57375 0.68 0 0 Z " fill="#0E98B2" transform="translate(195,6)"/>
<path d="M0 0 C0.99 0.33 1.98 0.66 3 1 C2.319375 1.94875 1.63875 2.8975 0.9375 3.875 C-1.79506725 8.67152762 -1.11079851 12.76101002 0 18 C0.13148438 18.6703125 0.26296875 19.340625 0.3984375 20.03125 C3.19134016 29.90760144 12.86017397 37.29726219 20.7734375 43.1484375 C24.38897762 46.15504455 26.66219502 48.54388276 27.7421875 53.19921875 C28.00166174 60.01423348 27.61199639 64.36565687 22.875 69.5 C16.94975322 74.65905108 10.33737371 77.39914419 3 80 C3 78.02 3 76.04 3 74 C4.98 74 6.96 74 9 74 C12.40960445 62.06638441 10.45374688 54.90749376 5 44 C1.04 44 -2.92 44 -7 44 C-7.33 43.34 -7.66 42.68 -8 42 C-4.37 42 -0.74 42 3 42 C3 41.34 3 40.68 3 40 C2.01 40 1.02 40 0 40 C-5.80787667 34.17699865 -9.10942772 27.25423969 -9.5 19.0625 C-9.35089723 13.09838937 -7.7179668 9.5605655 -4 5 C-2.8553125 3.515 -2.8553125 3.515 -1.6875 2 C-1.130625 1.34 -0.57375 0.68 0 0 Z " fill="#0A9AB0" transform="translate(195,6)"/>
<path d="M0 0 C2.8100346 1.79363911 4.50940468 3.01880935 6 6 C6.47847852 9.0828553 6.5463489 11.92347221 6 15 C3.42150999 18.15865026 1.93642904 19.53510335 -1.96875 20.47265625 C-5.6724483 20.75043362 -8.4113439 20.15317052 -11.5 18.0625 C-14.43908436 14.46212166 -14.76995019 12.67425289 -14.46875 8.15625 C-13.77989736 4.98752784 -12.33200445 3.19482772 -10 1 C-6.79826746 -0.60086627 -3.47422941 -0.49917089 0 0 Z " fill="#0391AF" transform="translate(226,22)"/>
<path d="M0 0 C-0.1146585 6.42087617 -1.78577929 11.48882162 -4.3125 17.3125 C-4.60842041 18.00601563 -4.90434082 18.69953125 -5.20922852 19.4140625 C-5.50756592 20.07792969 -5.80590332 20.74179688 -6.11328125 21.42578125 C-6.37923096 22.01786377 -6.64518066 22.60994629 -6.91918945 23.2199707 C-8 25 -8 25 -12 29 C-12 21.41 -12 13.82 -12 6 C-1.125 0 -1.125 0 0 0 Z " fill="#049BAF" transform="translate(210,80)"/>
<path d="M0 0 C0.33 1.32 0.66 2.64 1 4 C-0.98 4.66 -2.96 5.32 -5 6 C-5 6.99 -5 7.98 -5 9 C-3.02 9 -1.04 9 1 9 C1.33 7.35 1.66 5.7 2 4 C8.75 2.875 8.75 2.875 11 4 C11 6.97 11 9.94 11 13 C9.741875 13.185625 8.48375 13.37125 7.1875 13.5625 C6.12595703 13.71912109 6.12595703 13.71912109 5.04296875 13.87890625 C3 14 3 14 0 13 C-0.33 13.33 -0.66 13.66 -1 14 C-7.2246696 13.65418502 -7.2246696 13.65418502 -10 11.3125 C-11.40208688 8.0701741 -11.13144192 6.32361065 -10 3 C-6.70636647 0.25530539 -4.23535988 -0.36303085 0 0 Z " fill="#0480B1" transform="translate(348,65)"/>
<path d="M0 0 C0.33 0 0.66 0 1 0 C1 7.59 1 15.18 1 23 C-8 26.375 -8 26.375 -12.5 26.6875 C-13.78390625 26.78611328 -13.78390625 26.78611328 -15.09375 26.88671875 C-15.7228125 26.92410156 -16.351875 26.96148437 -17 27 C-16.62488281 26.56429687 -16.24976563 26.12859375 -15.86328125 25.6796875 C-14.79132044 24.43221674 -13.72250724 23.1820368 -12.65625 21.9296875 C-11.64914015 20.75630951 -10.63104158 19.59209597 -9.59375 18.4453125 C-6.43589572 14.88309884 -4.7062669 11.42078243 -3 7 C-2.44277308 5.68525262 -1.88041476 4.37266614 -1.3125 3.0625 C-0.879375 2.051875 -0.44625 1.04125 0 0 Z " fill="#06A8AD" transform="translate(227,78)"/>
<path d="M0 0 C0 0.99 0 1.98 0 3 C0.66 3 1.32 3 2 3 C2 2.01 2 1.02 2 0 C3.65 0 5.3 0 7 0 C7.33 0.66 7.66 1.32 8 2 C10.52733235 2.65555119 10.52733235 2.65555119 13 3 C13 5.97 13 8.94 13 12 C11.35 12 9.7 12 8 12 C7.67 10.68 7.34 9.36 7 8 C6.67 9.32 6.34 10.64 6 12 C4.88625 11.9690625 4.88625 11.9690625 3.75 11.9375 C1.06766043 11.89438005 1.06766043 11.89438005 -1.1875 12.5625 C-3 13 -3 13 -5 12 C-5.51953125 10.0390625 -5.51953125 10.0390625 -5.8125 7.625 C-5.92207031 6.83351563 -6.03164063 6.04203125 -6.14453125 5.2265625 C-6 3 -6 3 -4.69921875 1.2109375 C-3 0 -3 0 0 0 Z M0 6 C0 6.99 0 7.98 0 9 C0.66 9 1.32 9 2 9 C2 8.01 2 7.02 2 6 C1.34 6 0.68 6 0 6 Z " fill="#0480B1" transform="translate(319,66)"/>
<path d="M0 0 C0.66 0.99 1.32 1.98 2 3 C2.33 2.01 2.66 1.02 3 0 C5.8125 -0.625 5.8125 -0.625 9 -1 C9.99 -0.34 10.98 0.32 12 1 C12.40843923 3.71203652 12.13336867 6.2437142 12 9 C10.54364629 9.22174933 9.08477044 9.42698698 7.625 9.625 C6.81289063 9.74101563 6.00078125 9.85703125 5.1640625 9.9765625 C4.44992187 9.98429687 3.73578125 9.99203125 3 10 C2.34 9.34 1.68 8.68 1 8 C0.34 8.66 -0.32 9.32 -1 10 C-7.57692308 9.42307692 -7.57692308 9.42307692 -9 8 C-9.23529412 2.47058824 -9.23529412 2.47058824 -8 0 C-4.67212881 -1.1092904 -3.3006216 -1.01557588 0 0 Z M-5 5 C-4.67 5.66 -4.34 6.32 -4 7 C-2.35 6.67 -0.7 6.34 1 6 C1 5.67 1 5.34 1 5 C-0.98 5 -2.96 5 -5 5 Z " fill="#047FB1" transform="translate(295,69)"/>
<path d="M0 0 C0.99 -0.185625 1.98 -0.37125 3 -0.5625 C6 -1 6 -1 9 1 C9 2.32 9 3.64 9 5 C8.01 5.33 7.02 5.66 6 6 C6.66 6 7.32 6 8 6 C7.67 7.32 7.34 8.64 7 10 C0.125 9.125 0.125 9.125 -1 8 C-1.04063832 6.33382885 -1.042721 4.66611905 -1 3 C-1.99 3.495 -1.99 3.495 -3 4 C-3.65555119 6.52733235 -3.65555119 6.52733235 -4 9 C-5.65 9 -7.3 9 -9 9 C-8.67 6.03 -8.34 3.06 -8 0 C-4.71303767 -0.79953138 -3.28976808 -1.09658936 0 0 Z " fill="#047FB1" transform="translate(369,69)"/>
<path d="M0 0 C3.3 0 6.6 0 10 0 C10.87803368 3.73164314 11.17423601 7.16680771 11 11 C10 12 10 12 7.49609375 12.09765625 C4.6640625 12.06510417 1.83203125 12.03255208 -1 12 C-0.67 8.04 -0.34 4.08 0 0 Z " fill="#0D9FAF" transform="translate(285,45)"/>
<path d="M0 0 C3.63 0 7.26 0 11 0 C11.09765625 8.49609375 11.09765625 8.49609375 11 11 C10 12 10 12 7.71484375 12.09765625 C5.14322917 12.06510417 2.57161458 12.03255208 0 12 C0 8.04 0 4.08 0 0 Z " fill="#0DA0AF" transform="translate(272,45)"/>
<path d="M0 0 C4.60659438 3.96678961 7.49291287 8.04577054 9 14 C9.31591099 19.02950347 9.23887383 23.96374334 9 29 C5.06171464 31.31663844 1.30764815 33.43358249 -3 35 C-3 33.02 -3 31.04 -3 29 C-1.02 29 0.96 29 3 29 C5.90839556 18.82061555 5.24512928 12.59842484 1 3 C0.67 2.01 0.34 1.02 0 0 Z " fill="#086296" transform="translate(201,51)"/>
<path d="M0 0 C1.65 0 3.3 0 5 0 C5 1.32 5 2.64 5 4 C5.99 3.67 6.98 3.34 8 3 C8.33 2.01 8.66 1.02 9 0 C10.32 0 11.64 0 13 0 C13 3.96 13 7.92 13 12 C11.35 12 9.7 12 8 12 C8 10.35 8 8.7 8 7 C7.01 7 6.02 7 5 7 C4.67 8.65 4.34 10.3 4 12 C2.68 12 1.36 12 0 12 C0 8.04 0 4.08 0 0 Z " fill="#0481B1" transform="translate(272,66)"/>
<path d="M0 0 C0.33 0 0.66 0 1 0 C1.33 8.91 1.66 17.82 2 27 C12.05996802 21.15696244 12.05996802 21.15696244 16 17 C16.66 17 17.32 17 18 17 C18 16.34 18 15.68 18 15 C18.66 15 19.32 15 20 15 C20.268125 14.38125 20.53625 13.7625 20.8125 13.125 C22 11 22 11 25 9 C23.61085525 13.29718953 21.61968015 15.70687757 18.375 18.8125 C17.55773437 19.60269531 16.74046875 20.39289063 15.8984375 21.20703125 C15.27195313 21.79871094 14.64546875 22.39039062 14 23 C15.98 23 17.96 23 20 23 C16.75493959 25.16337361 13.73038879 26.30871672 10.0625 27.625 C8.83660156 28.07101563 7.61070312 28.51703125 6.34765625 28.9765625 C3 30 3 30 -1 30 C-0.67 20.1 -0.34 10.2 0 0 Z " fill="#2F9FB3" transform="translate(197,81)"/>
<path d="M0 0 C0.33 1.32 0.66 2.64 1 4 C0.01 4.33 -0.98 4.66 -2 5 C-1.484375 5.391875 -0.96875 5.78375 -0.4375 6.1875 C0.036875 6.785625 0.51125 7.38375 1 8 C0.6875 10.6875 0.6875 10.6875 0 13 C-2.31 13.33 -4.62 13.66 -7 14 C-7.33 12.35 -7.66 10.7 -8 9 C-7.01 9 -6.02 9 -5 9 C-5.515625 8.608125 -6.03125 8.21625 -6.5625 7.8125 C-8 6 -8 6 -7.8125 3.375 C-6.40547323 -0.73784747 -3.89621934 -0.10253209 0 0 Z " fill="#0D9FAF" transform="translate(305,44)"/>
<path d="M0 0 C1.65 0 3.3 0 5 0 C4.67 3.96 4.34 7.92 4 12 C2.68 12 1.36 12 0 12 C0 8.04 0 4.08 0 0 Z " fill="#0581B1" transform="translate(308,66)"/>
<path d="M0 0 C0.33 0 0.66 0 1 0 C1.01458252 0.80743652 1.02916504 1.61487305 1.04418945 2.44677734 C1.11846086 6.0900127 1.21519025 9.73231033 1.3125 13.375 C1.33505859 14.64601563 1.35761719 15.91703125 1.38085938 17.2265625 C1.41630859 18.43828125 1.45175781 19.65 1.48828125 20.8984375 C1.51446533 22.01911621 1.54064941 23.13979492 1.56762695 24.29443359 C1.71031006 25.18727051 1.85299316 26.08010742 2 27 C2.99 27.66 3.98 28.32 5 29 C3.02 29.33 1.04 29.66 -1 30 C-0.67 20.1 -0.34 10.2 0 0 Z " fill="#4AB5BE" transform="translate(197,81)"/>
<path d="M0 0 C0.33 0 0.66 0 1 0 C1 5.28 1 10.56 1 16 C0.67 16 0.34 16 0 16 C-0.33 13.69 -0.66 11.38 -1 9 C-1.99 9.33 -2.98 9.66 -4 10 C-2.66666667 6.66666667 -1.33333333 3.33333333 0 0 Z " fill="#49C3BD" transform="translate(227,78)"/>
<path d="M0 0 C0.99 0.33 1.98 0.66 3 1 C1.68 3.31 0.36 5.62 -1 8 C-1.99 8 -2.98 8 -4 8 C-4 4.09161134 -2.49432124 2.88405893 0 0 Z " fill="#2274AB" transform="translate(195,6)"/>
<path d="M0 0 C0.99 0.33 1.98 0.66 3 1 C1.02 1.99 1.02 1.99 -1 3 C-1 3.66 -1 4.32 -1 5 C-2.65 5 -4.3 5 -6 5 C-2.25 1.125 -2.25 1.125 0 0 Z " fill="#1982AF" transform="translate(206,104)"/>
<path d="M0 0 C0.33 0.66 0.66 1.32 1 2 C1.66 2 2.32 2 3 2 C1.25 6.875 1.25 6.875 -1 8 C-1.04241723 5.66705225 -1.04092937 3.33297433 -1 1 C-0.67 0.67 -0.34 0.34 0 0 Z " fill="#02D2AC" transform="translate(199,101)"/>
</svg>
